<mxfile host="app.diagrams.net" modified="2021-07-23T15:18:45.656Z" agent="5.0 (Windows NT 10.0; Win64; x64) AppleWebKit/537.36 (KHTML, like Gecko) Chrome/92.0.4515.107 Safari/537.36" etag="GecJRBepc53iAmC750g1" version="14.9.1" type="github">
  <diagram id="KYBh1_Fous7zdA7Xkofr" name="Page-1">
    <mxGraphModel dx="1530" dy="980" grid="1" gridSize="10" guides="1" tooltips="1" connect="1" arrows="1" fold="1" page="1" pageScale="1" pageWidth="850" pageHeight="1100" math="0" shadow="0">
      <root>
        <mxCell id="0" />
        <mxCell id="1" parent="0" />
        <mxCell id="zzGnuRsnEFHqsaKYD8D7-3" value="" style="rounded=0;whiteSpace=wrap;html=1;" vertex="1" parent="1">
          <mxGeometry x="70" y="788" width="240" height="132" as="geometry" />
        </mxCell>
        <mxCell id="JVKzG8Sv0Ugj9nFfbJfG-2" value="Users" style="aspect=fixed;html=1;points=[];align=center;image;fontSize=12;image=img/lib/azure2/databases/SQL_Database.svg;" parent="1" vertex="1">
          <mxGeometry x="80" y="800" width="48" height="64" as="geometry" />
        </mxCell>
        <mxCell id="JVKzG8Sv0Ugj9nFfbJfG-3" value="Events" style="aspect=fixed;html=1;points=[];align=center;image;fontSize=12;image=img/lib/azure2/databases/SQL_Database.svg;" parent="1" vertex="1">
          <mxGeometry x="142" y="800" width="48" height="64" as="geometry" />
        </mxCell>
        <mxCell id="JVKzG8Sv0Ugj9nFfbJfG-5" value="TMS backend" style="aspect=fixed;html=1;points=[];align=center;image;fontSize=12;image=img/lib/azure2/compute/App_Services.svg;" parent="1" vertex="1">
          <mxGeometry x="90" y="180" width="64" height="64" as="geometry" />
        </mxCell>
        <mxCell id="JVKzG8Sv0Ugj9nFfbJfG-6" value="TMS portals" style="aspect=fixed;html=1;points=[];align=center;image;fontSize=12;image=img/lib/azure2/compute/App_Services.svg;" parent="1" vertex="1">
          <mxGeometry x="190" y="180" width="64" height="64" as="geometry" />
        </mxCell>
        <mxCell id="JVKzG8Sv0Ugj9nFfbJfG-7" value="Accounts" style="aspect=fixed;html=1;points=[];align=center;image;fontSize=12;image=img/lib/azure2/compute/App_Services.svg;" parent="1" vertex="1">
          <mxGeometry x="176" y="460" width="50" height="50" as="geometry" />
        </mxCell>
        <mxCell id="JVKzG8Sv0Ugj9nFfbJfG-8" value="Events&amp;nbsp;" style="aspect=fixed;html=1;points=[];align=center;image;fontSize=12;image=img/lib/azure2/compute/App_Services.svg;" parent="1" vertex="1">
          <mxGeometry x="270" y="460" width="50" height="50" as="geometry" />
        </mxCell>
        <mxCell id="JVKzG8Sv0Ugj9nFfbJfG-10" value="Accomodations" style="aspect=fixed;html=1;points=[];align=center;image;fontSize=12;image=img/lib/azure2/compute/App_Services.svg;" parent="1" vertex="1">
          <mxGeometry x="360" y="460" width="50" height="50" as="geometry" />
        </mxCell>
        <mxCell id="JVKzG8Sv0Ugj9nFfbJfG-11" value="Badges" style="aspect=fixed;html=1;points=[];align=center;image;fontSize=12;image=img/lib/azure2/compute/App_Services.svg;" parent="1" vertex="1">
          <mxGeometry x="80" y="565" width="50" height="50" as="geometry" />
        </mxCell>
        <mxCell id="JVKzG8Sv0Ugj9nFfbJfG-12" value="Blobs" style="aspect=fixed;html=1;points=[];align=center;image;fontSize=12;image=img/lib/azure2/storage/Storage_Accounts.svg;" parent="1" vertex="1">
          <mxGeometry x="50" y="958" width="65" height="52" as="geometry" />
        </mxCell>
        <mxCell id="JVKzG8Sv0Ugj9nFfbJfG-13" value="" style="aspect=fixed;html=1;points=[];align=center;image;fontSize=12;image=img/lib/azure2/security/Key_Vaults.svg;" parent="1" vertex="1">
          <mxGeometry x="740" y="630" width="68" height="68" as="geometry" />
        </mxCell>
        <mxCell id="JVKzG8Sv0Ugj9nFfbJfG-14" value="Key Vault&lt;br&gt;" style="text;html=1;align=center;verticalAlign=middle;resizable=0;points=[];autosize=1;strokeColor=none;" parent="1" vertex="1">
          <mxGeometry x="740" y="710" width="70" height="20" as="geometry" />
        </mxCell>
        <mxCell id="JVKzG8Sv0Ugj9nFfbJfG-18" value="Transportation" style="aspect=fixed;html=1;points=[];align=center;image;fontSize=12;image=img/lib/azure2/compute/App_Services.svg;" parent="1" vertex="1">
          <mxGeometry x="175" y="565" width="50" height="50" as="geometry" />
        </mxCell>
        <mxCell id="JVKzG8Sv0Ugj9nFfbJfG-19" value="POS" style="aspect=fixed;html=1;points=[];align=center;image;fontSize=12;image=img/lib/azure2/compute/App_Services.svg;" parent="1" vertex="1">
          <mxGeometry x="270" y="565" width="50" height="50" as="geometry" />
        </mxCell>
        <mxCell id="JVKzG8Sv0Ugj9nFfbJfG-20" value="CourtsBooker" style="aspect=fixed;html=1;points=[];align=center;image;fontSize=12;image=img/lib/azure2/compute/App_Services.svg;" parent="1" vertex="1">
          <mxGeometry x="360" y="565" width="50" height="50" as="geometry" />
        </mxCell>
        <mxCell id="JVKzG8Sv0Ugj9nFfbJfG-23" value="TMS events" style="aspect=fixed;html=1;points=[];align=center;image;fontSize=12;image=img/lib/mscae/Service_Bus.svg;" parent="1" vertex="1">
          <mxGeometry x="500" y="515" width="50" height="50" as="geometry" />
        </mxCell>
        <mxCell id="JVKzG8Sv0Ugj9nFfbJfG-29" value="Event handlers" style="aspect=fixed;html=1;points=[];align=center;image;fontSize=12;image=img/lib/azure2/compute/Function_Apps.svg;" parent="1" vertex="1">
          <mxGeometry x="580" y="505" width="68" height="60" as="geometry" />
        </mxCell>
        <mxCell id="JVKzG8Sv0Ugj9nFfbJfG-32" style="edgeStyle=orthogonalEdgeStyle;rounded=0;orthogonalLoop=1;jettySize=auto;html=1;" parent="1" source="JVKzG8Sv0Ugj9nFfbJfG-30" target="JVKzG8Sv0Ugj9nFfbJfG-13" edge="1">
          <mxGeometry relative="1" as="geometry" />
        </mxCell>
        <mxCell id="JVKzG8Sv0Ugj9nFfbJfG-30" value="Configuration" style="aspect=fixed;html=1;points=[];align=center;image;fontSize=12;image=img/lib/mscae/App_Configuration.svg;" parent="1" vertex="1">
          <mxGeometry x="749" y="420" width="50" height="49" as="geometry" />
        </mxCell>
        <mxCell id="JVKzG8Sv0Ugj9nFfbJfG-33" value="Reports" style="aspect=fixed;html=1;points=[];align=center;image;fontSize=12;image=img/lib/azure2/databases/SQL_Database.svg;" parent="1" vertex="1">
          <mxGeometry x="240" y="800" width="48" height="64" as="geometry" />
        </mxCell>
        <mxCell id="zzGnuRsnEFHqsaKYD8D7-1" value="Users &lt;br&gt;(Identity Server)" style="aspect=fixed;html=1;points=[];align=center;image;fontSize=12;image=img/lib/azure2/compute/App_Services.svg;" vertex="1" parent="1">
          <mxGeometry x="80" y="460" width="50" height="50" as="geometry" />
        </mxCell>
        <mxCell id="zzGnuRsnEFHqsaKYD8D7-2" value="" style="aspect=fixed;html=1;points=[];align=center;image;fontSize=12;image=img/lib/azure2/databases/SQL_Elastic_Pools.svg;" vertex="1" parent="1">
          <mxGeometry x="58.5" y="740" width="48" height="48" as="geometry" />
        </mxCell>
      </root>
    </mxGraphModel>
  </diagram>
</mxfile>
